<svg xmlns="http://www.w3.org/2000/svg" xmlns:xlink="http://www.w3.org/1999/xlink" width="2604" height="2459" viewbox="2604 2459"><defs><linearGradient id="f"><stop offset="0" stop-color="#c52326"/><stop offset="1" stop-color="#c52326" stop-opacity="0"/></linearGradient><linearGradient id="a"><stop offset="0" stop-color="#55a11e"/><stop offset="1" stop-color="#417d22"/></linearGradient><linearGradient id="b"><stop offset="0" stop-color="#55a11e"/><stop offset="1" stop-color="#417d22"/></linearGradient><linearGradient id="c"><stop offset="0" stop-color="#55a11e"/><stop offset="1" stop-color="#417d22"/></linearGradient><linearGradient id="d"><stop offset="0" stop-color="#55a11e"/><stop offset="1" stop-color="#417d22"/></linearGradient><linearGradient id="e"><stop offset="0" stop-color="#55a11e"/><stop offset="1" stop-color="#417d22"/></linearGradient><linearGradient xlink:href="#f" id="g" x1="1467.231" y1="1638.476" x2="1485.252" y2="-356.979" gradientUnits="userSpaceOnUse"/></defs><g fill-rule="evenodd"><path d="M2020.795 844.255c-10.142 67.696-16.748 195.69-19.84 383.992-2.334 185.976-9.341 315.133-21.017 387.49-18.683 118.262-54.847 177.803-108.538 178.582-49.798.768-83.65-19.456-101.554-60.693-12.455-27.243-19.439-72.768-20.995-136.555-2.336-69.235-6.25-114.382-11.677-135.394-11.676-41.25-36.943-61.088-75.863-59.517-52.918 1.536-86.367 35.4-100.374 101.538-10.111 49.782-15.172 170.024-15.172 360.648 0 103.477 6.993 241.205 21 413.173-3.096 121.387-47.849 182.07-134.217 182.07-85.6 0-133.056-63.425-142.398-190.24 6.235-185.974 8.949-338.475 8.179-457.537-1.568-176.63-8.948-302.285-22.184-376.974-22.55-130.727-66.523-194.921-131.881-192.583-70.034 2.337-116.72 19.846-140.058 52.526-37.355 52.91-56.028 166.127-56.028 339.634 0 137.717 1.165 294.517 3.503 470.357-9.342 107.382-52.922 162.24-130.717 164.576-90.275 2.326-139.268-64.586-147.061-200.757 7.77-202.315 11.667-369.59 11.667-501.873 0-200.749-2.337-322.126-7.004-364.146-16.342-134.623-58.747-202.684-127.212-204.253-47.457-1.538-79.367 46.686-95.711 144.724-8.572 55.258-14.401 163.406-17.509 324.475-3.107 154.833-10.504 263.377-22.175 325.628-19.44 98.037-55.62 146.666-108.541 145.898-64.59-.8-99.981-40.853-106.216-120.224 5.444-122.154 7.4-226.026 5.84-311.619-.769-54.46-8.572-212.824-23.348-475.039-14.008-244.33-23.338-394.894-28.013-451.68-6.226-94.15-46.18-193.039-155.681-204.667V0h2604.384v375.815c-131.605 1.954-139.701 197.654-139.701 197.654-23.062 360.372-2.528 767.663 22.197 1094.791 1.867 91.499-49.6 153.632-132.288 154.464-78.581 0-119.435-69.653-122.55-168.458 11.68-161.843 17.505-306.575 17.505-434.186 0-190.64-3.094-310.467-9.323-359.48-15.584-115.953-54.09-176.645-115.563-182.078-52.11-4.667-86.762 50.58-103.866 165.733z" fill="#a2181b"/><path d="M924.39 343.845c-10.143 67.696-16.748 195.69-19.84 383.993-2.335 185.975-9.341 315.133-21.017 387.49-18.683 118.261-54.847 177.803-108.538 178.581-49.798.768-83.65-19.456-101.554-60.693-12.455-27.243-19.439-72.768-20.995-136.555-2.336-69.235-6.25-114.382-11.677-135.394-11.677-41.25-36.943-61.088-75.863-59.517-52.919 1.536-86.367 35.4-100.375 101.539-10.11 49.782-15.171 170.023-15.171 360.647 0 103.477 6.993 241.205 21 413.173-3.096 121.387-47.85 182.07-134.217 182.07-85.6 0-133.056-63.424-142.398-190.24 6.235-185.974 8.948-338.475 8.178-457.536-1.568-176.63-8.947-302.285-22.183-376.974C157.19 803.7 113.217 739.507 47.858 741.845c-70.033 2.337-116.72 19.847-140.057 52.526-37.355 52.91-56.028 166.127-56.028 339.634 0 137.718 1.165 294.518 3.503 470.358-9.342 107.381-52.922 162.24-130.717 164.576-90.275 2.325-139.268-64.587-147.061-200.758 7.77-202.314 11.667-369.589 11.667-501.873 0-200.749-2.337-322.126-7.004-364.146-16.342-134.623-58.748-202.684-127.213-204.253-47.457-1.538-79.366 46.686-95.71 144.725-8.572 55.257-14.402 163.405-17.509 324.474-3.107 154.833-10.504 263.377-22.175 325.628-19.44 98.037-55.621 146.667-108.542 145.899-64.589-.8-99.98-40.854-106.215-120.224 5.444-122.155 7.4-226.027 5.84-311.62-.77-54.46-8.572-212.824-23.348-475.038-14.008-244.33-23.338-394.894-28.013-451.68-6.226-94.15-46.18-193.04-155.681-204.667V-500.41h2604.384v375.816c-131.606 1.953-139.702 197.654-139.702 197.654-23.061 360.371-2.528 767.662 22.198 1094.79 1.866 91.5-49.6 153.633-132.288 154.465-78.582 0-119.435-69.654-122.55-168.459 11.68-161.842 17.504-306.575 17.504-434.186 0-190.64-3.093-310.467-9.322-359.48-15.584-115.952-54.091-176.644-115.563-182.078-52.11-4.667-86.763 50.581-103.867 165.733z" fill="url(#g)" transform="translate(1096.405 500.41)"/><g fill="#f6ffd5"><path d="M198.472 846.543c12.217 208.17 24.938 416.341 32.798 624.732 2.87 110.105-1.53 220.228-5.33 330.233 2.966 33.483 12.087 69.462 39.165 91.798 9.228 7.52 21.339 13.034 32.166 15.54-22.272-13.972-36.628-38.08-41.55-63.711-5.089-25.259.7-50.976.727-76.427 4.747-97.674 4.92-195.69-3.157-293.2-13.085-197.944-27.585-395.815-45.319-593.398-1.89-16.717-4.828-33.549-10.334-49.534l.834 13.967zM2272.843 1039.743c3.328 175.516.458 351.207-11.574 526.37-1.28 25.955-4.096 51.918-4.053 77.891 2.603 41.59 11.53 84.8 38.923 117.536-11.211-27.712-13.707-58.592-9.184-87.978 12.832-139.122 17.333-278.982 13.898-418.652-1.034-54.996-1.429-110.405-9.664-164.832-3.765-20.773-9.568-41.289-18.517-60.468.053 3.378.107 6.755.17 10.133zM717.672 1361.71c3.707 229.068-2.293 458.156-10.019 687.062 1.878 49.014 10.408 99.616 37.985 141.067 16.986 24.245 45.502 40.117 75.268 41.867 37.111 3.797 77.33-10.038 98.309-42.134 1.427-2.528 6.733-8.256.89-5.664-44.758 11.21-94.59 6.859-134.766-16.597-35.747-22.357-57.572-62.027-65.85-102.57-11.17-50.145-2.066-101.707-1.253-152.427 7.224-176.512 10.412-353.382 2.069-529.904-.725-8.284-1.533-16.502-2.7-24.7l.067 4zM1316.58 1564.513c10.706 133.337 10.252 267.235 9.335 400.9-1.239 99.477-4.676 198.943-6.764 298.41 3.905 45.61 12.966 93.43 42.355 130.005 23.552 28.118 62.607 38.998 98.245 34.176 29.27-3.338 57.898-19.221 72.576-45.301 12.28-19.53 18.586-41.963 22.433-64.459-37.376 19.339-82.202 19.808-122.405 9.824-37.198-10.613-68.114-39.626-81.028-76.032-13.16-31.626-16.244-66.581-13.245-100.533 6.472-170.09 12.801-341.088-5.206-510.656-3.464-27.637-8.459-55.147-16.737-81.676l.44 5.342zM1771.706 1535.11c3.531 58.516.117 119.369 21.565 174.836 4.62 10.56 10.766 20.725 18.634 29.194-14.173-48.63-8.963-100.138-15.875-149.824-2.01-21.408-7.09-45.173-24.625-59.273l.3 5.066z"/></g></g></svg>
