<svg xmlns="http://www.w3.org/2000/svg" width="384" height="537.6" viewBox="0 0 288 403.2"><defs><linearGradient id="a" gradientUnits="objectBoundingBox" x1=".984" y1=".87" x2=".991" y2=".058" spreadMethod="pad"><stop stop-color="#c52326" offset="0"/><stop stop-color="#c52326" offset="1" stop-opacity="0"/></linearGradient></defs><path d="M1.44 116.64h115.2V1.44h57.6v115.2h115.2v57.6h-115.2v230.4h-57.6v-230.4H1.44z"/><g fill="none"><path fill="#a2181b" fill-rule="evenodd" d="M262.795 143.273c-.45 2.14-.742 6.184-.879 12.135-.103 5.877-.414 9.959-.93 12.246-.828 3.737-2.43 5.618-4.808 5.643-2.205.024-3.704-.615-4.497-1.918-.552-.861-.861-2.3-.93-4.316-.103-2.187-.277-3.614-.518-4.278-.516-1.304-1.636-1.93-3.36-1.881-2.343.049-3.824 1.119-4.444 3.209-.448 1.573-.672 5.373-.672 11.397 0 3.27.31 7.623.93 13.057-.138 3.836-2.12 5.754-5.945 5.754-3.79 0-5.893-2.005-6.306-6.012.276-5.877.396-10.697.362-14.46-.07-5.581-.396-9.552-.982-11.912-.999-4.132-2.947-6.16-5.841-6.086-3.102.073-5.17.627-6.203 1.66-1.654 1.672-2.481 5.25-2.481 10.733 0 4.352.051 9.307.155 14.864-.414 3.393-2.344 5.127-5.79 5.201-3.998.073-6.167-2.041-6.513-6.344.345-6.394.517-11.68.517-15.86 0-6.345-.103-10.18-.31-11.509-.724-4.254-2.602-6.405-5.634-6.454-2.102-.049-3.515 1.475-4.239 4.573-.38 1.746-.638 5.164-.775 10.254-.138 4.893-.465 8.324-.982 10.291-.861 3.098-2.464 4.635-4.807 4.61-2.861-.025-4.428-1.29-4.705-3.799.242-3.86.328-7.143.26-9.848-.035-1.72-.38-6.725-1.035-15.012-.62-7.721-1.033-12.48-1.24-14.274-.276-2.975-2.046-6.1-6.895-6.468v-11.876H288.64v11.876c-5.828.062-6.187 6.246-6.187 6.246-1.02 11.389-.111 24.26.984 34.598.082 2.892-2.197 4.855-5.86 4.882-3.48 0-5.289-2.202-5.427-5.324.518-5.115.776-9.688.776-13.721 0-6.025-.138-9.812-.414-11.36-.69-3.665-2.395-5.583-5.117-5.755-2.308-.147-3.843 1.599-4.6 5.238z"/><path fill="url(#a)" fill-rule="evenodd" d="M2020.8 844.255c-10.15 67.696-16.75 195.695-19.84 383.995-2.34 185.97-9.35 315.13-21.02 387.49-18.68 118.26-54.85 177.8-108.54 178.58-49.8.77-83.65-19.46-101.55-60.69-12.46-27.25-19.44-72.77-21-136.56-2.33-69.23-6.25-114.38-11.68-135.39-11.67-41.25-36.94-61.09-75.86-59.52-52.92 1.54-86.37 35.4-100.37 101.54-10.11 49.78-15.17 170.02-15.17 360.65 0 103.47 6.99 241.2 21 413.17-3.1 121.39-47.85 182.07-134.22 182.07-85.6 0-133.06-63.43-142.4-190.24 6.24-185.98 8.95-338.48 8.18-457.54-1.57-176.63-8.95-302.28-22.18-376.97-22.55-130.73-66.53-194.92-131.89-192.58-70.03 2.33-116.72 19.84-140.05 52.52-37.359 52.91-56.032 166.13-56.032 339.64 0 137.71 1.165 294.51 3.503 470.35-9.342 107.38-52.922 162.24-130.717 164.58-90.275 2.32-139.268-64.59-147.061-200.76 7.77-202.31 11.667-369.59 11.667-501.87 0-200.75-2.337-322.13-7.004-364.15-16.342-134.62-58.748-202.682-127.213-204.251-47.457-1.538-79.366 46.691-95.71 144.721-8.572 55.26-14.402 163.41-17.509 324.48-3.107 154.83-10.504 263.37-22.175 325.63-19.44 98.03-55.621 146.66-108.542 145.89-64.589-.8-99.98-40.85-106.215-120.22 5.444-122.15 7.4-226.03 5.84-311.62-.77-54.46-8.572-212.82-23.348-475.04-14.008-244.327-23.338-394.891-28.013-451.677-6.226-94.15-46.18-193.04-155.681-204.667V0h2604.38v375.816c-131.6 1.953-139.7 197.654-139.7 197.654-23.06 360.371-2.53 767.66 22.2 1094.79 1.87 91.5-49.6 153.63-132.29 154.46-78.58 0-119.43-69.65-122.55-168.45 11.68-161.85 17.51-306.58 17.51-434.19 0-190.64-3.1-310.467-9.33-359.48-15.58-115.952-54.09-176.644-115.56-182.078-52.11-4.667-86.76 50.581-103.87 165.733z" transform="matrix(.04429 0 0 .0316 173.298 116.593)"/><path fill="#f6ffd5" fill-rule="evenodd" d="M182.088 143.345c.54 6.579 1.104 13.157 1.452 19.743.127 3.48-.068 6.96-.236 10.436.131 1.058.535 2.195 1.735 2.901.408.238.945.412 1.424.491-.986-.441-1.622-1.203-1.84-2.013-.225-.798.031-1.611.032-2.415.21-3.087.218-6.185-.14-9.266-.58-6.256-1.221-12.509-2.007-18.753-.083-.528-.214-1.06-.457-1.565zm91.87 6.106c.147 5.546.02 11.099-.513 16.634-.057.82-.182 1.64-.18 2.462.115 1.314.51 2.68 1.724 3.714a3.904 3.904 0 01-.407-2.78c.569-4.397.768-8.817.616-13.23-.046-1.739-.063-3.49-.428-5.21a6.28 6.28 0 00-.82-1.91l.007.32zm-68.876 10.175c.164 7.239-.102 14.478-.444 21.712.083 1.55.461 3.148 1.682 4.458.753.767 2.016 1.268 3.334 1.323 1.644.12 3.425-.317 4.354-1.331.063-.08.298-.261.04-.18-1.983.355-4.19.218-5.97-.524-1.582-.706-2.549-1.96-2.916-3.241-.494-1.585-.091-3.214-.055-4.817.32-5.578.461-11.168.092-16.746a10.523 10.523 0 00-.12-.78zm26.524 6.409c.475 4.213.454 8.445.414 12.669-.055 3.143-.207 6.287-.3 9.43.173 1.442.574 2.953 1.876 4.109 1.043.888 2.773 1.232 4.351 1.08 1.296-.106 2.564-.608 3.214-1.432.544-.617.824-1.326.994-2.037-1.655.611-3.64.626-5.421.31-1.648-.335-3.017-1.252-3.589-2.402-.583-1-.719-2.104-.587-3.177.287-5.375.568-10.78-.23-16.138-.154-.873-.375-1.743-.741-2.581l.02.169zm20.157-.93c.156 1.85.005 3.773.955 5.526.205.333.477.655.825.922-.628-1.537-.397-3.164-.703-4.735-.089-.676-.314-1.427-1.09-1.873l.013.16z"/></g></svg>
